<?xml version="1.0" standalone="no"?>
<!DOCTYPE svg PUBLIC "-//W3C//DTD SVG 20010904//EN"
 "http://www.w3.org/TR/2001/REC-SVG-20010904/DTD/svg10.dtd">
<svg version="1.0" xmlns="http://www.w3.org/2000/svg"
 width="350.000000pt" height="350.000000pt" viewBox="0 0 350.000000 350.000000"
 preserveAspectRatio="xMidYMid meet">
<metadata>
Created by potrace 1.14, written by Peter Selinger 2001-2017
</metadata>
<g transform="translate(0.000000,350.000000) scale(0.100000,-0.100000)"
fill="#000000" stroke="none">
<path d="M1675 3419 c-11 -6 -295 -288 -632 -627 l-612 -617 -1 -217 c0 -120
3 -218 8 -218 4 0 14 8 23 18 14 15 472 464 793 775 122 119 147 133 194 113
54 -23 52 32 52 -1280 0 -767 4 -1224 10 -1240 5 -15 26 -34 45 -43 50 -24 73
-13 204 98 l110 94 0 1528 c1 1686 6 1564 -62 1606 -37 23 -99 27 -132 10z"/>
<path d="M2314 2826 c-18 -6 -72 -47 -120 -91 -49 -44 -120 -109 -159 -144
l-70 -64 -1 -243 -1 -244 22 18 c13 9 51 41 84 70 l61 54 0 -771 0 -771 24
-15 c34 -23 45 -15 191 128 l123 122 0 328 0 327 26 21 c14 11 32 26 39 32 6
7 49 43 95 80 l82 69 0 -249 c0 -277 3 -293 61 -293 23 0 44 13 87 54 31 29
90 85 131 123 l74 70 0 394 c0 217 -3 411 -7 431 -15 84 -127 109 -196 45 -37
-34 -390 -327 -394 -327 -2 0 -4 173 -4 385 0 452 3 436 -102 468 -8 2 -29 -1
-46 -7z"/>
<path d="M1088 2216 l-118 -113 0 -232 0 -232 -122 3 -123 3 1 103 c0 56 -3
102 -7 102 -4 0 -70 -61 -147 -136 l-140 -136 -1 -293 -1 -292 111 -107 c76
-73 117 -106 133 -106 47 0 51 17 52 254 1 122 2 228 3 237 1 14 17 16 119 15
l117 -1 1 -406 1 -406 113 -109 c62 -60 137 -133 165 -162 36 -36 55 -50 60
-41 4 6 7 89 6 183 -2 94 -4 355 -7 580 -2 257 -7 421 -14 442 -14 41 -68 90
-110 99 l-32 7 29 18 c38 24 77 67 102 115 20 38 21 54 21 362 0 310 -1 324
-20 343 -41 41 -66 28 -192 -94z"/>
</g>
</svg>
